# xmcd
#
# Track frame offsets:
#	150
#	104969
#	148157
#	177394
#	199746
#
# Disc length: 3386 seconds
#
# Revision: 1
# Processed by: cddbd v1.5.2PL0 Copyright (c) Steve Scherf et al.
# Submitted via: audiograbber 1.83.01
#
DISCID=4f0d3805
DTITLE=Grateful Dead - 73-11-30 Boston Music Hall, Boston MA
DYEAR=1900
DGENRE=
TTITLE0=Playing In The Band
TTITLE1=Bertha > Promised Land
TTITLE2=Row Jimmy
TTITLE3=Jack Straw
TTITLE4=Here Comes Sunshine
EXTD=
EXTT0=
EXTT1=
EXTT2=
EXTT3=
EXTT4=
PLAYORDER=
